{"title":"The Shaukeen (2014) [1CD] DVDCSR Rip Xvid Mp3 Studio Audio Team","uid":11397556,"size":735745018,"categoryP":"video","categoryS":"movies","magnet":"?xt=urn:btih:c5556b7d4d99bfd74936b6d178440ca22b17ace3&amp;dn=The+Shaukeen+%282014%29+%5B1CD%5D+DVDCSR+Rip+Xvid+Mp3+Studio+Audio+Team+&amp;tr=udp%3A%2F%2Ftracker.openbittorrent.com%3A80&amp;tr=udp%3A%2F%2Fopen.demonii.com%3A1337&amp;tr=udp%3A%2F%2Ftracker.coppersurfer.tk%3A6969&amp;tr=udp%3A%2F%2Fexodus.desync.com%3A6969","seeders":9,"leechers":3,"uploader":"inovai","files":19,"time":1415381769,"description":"The Shaukeen (2014) [1CD] DVDCSR Rip Xvid Mp3 Studio Audio Team TellyTNT Exclusive\n\nCover:\n &lt;a href=&quot;\nhttp://forum.primetimeshow.in/viewtopic.php?f=7&amp;t=809&quot; rel=&quot;nofollow&quot; target=&quot;_NEW&quot;&gt;\nhttp://forum.primetimeshow.in/viewtopic.php?f=7&amp;t=809&lt;/a&gt;\n\nMovie:............The Shaukeen\nSource: ..........DVDSCR @ Team TellyTNT\nYear:.............2014\n\nScreenshots:\n &lt;a href=&quot;\nhttp://m.primetimeshow.in/share-A2C6_545CF426.html&quot; rel=&quot;nofollow&quot; target=&quot;_NEW&quot;&gt;\nhttp://m.primetimeshow.in/share-A2C6_545CF426.html&lt;/a&gt;\n &lt;a href=&quot;\nhttp://m.primetimeshow.in/share-D357_545CF426.html&quot; rel=&quot;nofollow&quot; target=&quot;_NEW&quot;&gt;\nhttp://m.primetimeshow.in/share-D357_545CF426.html&lt;/a&gt;\n &lt;a href=&quot;\nhttp://m.primetimeshow.in/share-9411_545CF426.html&quot; rel=&quot;nofollow&quot; target=&quot;_NEW&quot;&gt;\nhttp://m.primetimeshow.in/share-9411_545CF426.html&lt;/a&gt;\n &lt;a href=&quot;\nhttp://m.primetimeshow.in/share-2096_545CF426.html&quot; rel=&quot;nofollow&quot; target=&quot;_NEW&quot;&gt;\nhttp://m.primetimeshow.in/share-2096_545CF426.html&lt;/a&gt;\n &lt;a href=&quot;\nhttp://m.primetimeshow.in/share-46EC_545CF426.html&quot; rel=&quot;nofollow&quot; target=&quot;_NEW&quot;&gt;\nhttp://m.primetimeshow.in/share-46EC_545CF426.html&lt;/a&gt;\n\nGeneral:\nComplete name : C:The Shaukeen.avi\nFormat : AVI\nFormat/Info : Audio Video Interleave\nFile size : 695 MiB\nDuration : 1h 58mn\nOverall bit rate : 817 Kbps\n\nVideo\nID : 0\nFormat : MPEG-4 Visual\nFormat profile : Advanced Simple@L5\nFormat settings, BVOP : 2\nFormat settings, QPel : No\nFormat settings, GMC : No warppoints\nFormat settings, Matrix : Default (H.263)\nCodec ID : XVID\nCodec ID/Hint : XviD\nDuration : 1h 58mn\nBit rate : 714 Kbps\nWidth : 640 pixels\nHeight : 272 pixels\nDisplay aspect ratio : 2.35:1\nFrame rate : 29.970 fps\nColor space : YUV\nChroma subsampling : 4:2:0\nBit depth : 8 bits\nScan type : Progressive\nCompression mode : Lossy\nBits/(Pixel*Frame) : 0.137\nStream size : 607 MiB (87%)\nWriting library : XviD 1.2.1 (UTC 2008-12-04)\n\nAudio\nID : 1\nFormat : MPEG Audio\nFormat version : Version 1\nFormat profile : Layer 3\nMode : Joint stereo\nMode extension : MS Stereo\nCodec ID : 55\nCodec ID/Hint : MP3\nDuration : 1h 58mn\nBit rate mode : Constant\nBit rate : 96.0 Kbps\nChannel(s) : 2 channels\nSampling rate : 32.0 KHz\nCompression mode : Lossy\nStream size : 81.6 MiB (12%)\nAlignment : Aligned on interleaves\nInterleave, duration : 133 ms (4.00 video frames)\nInterleave, preload duration : 216 ms\nTitle : VTS_01_1 T01 2_0ch 192Kbps DELAY 0ms\nWriting library : LAME3.99r\nEncoding settings : -m j -V 4 -q 2 -lowpass 15.1 -b 96\n\nSample Included in torrent!!\n\nThanks to Team TellyTNT!!\n\nSeed n Enjoy!!","torrent":{"xt":"urn:btih:c5556b7d4d99bfd74936b6d178440ca22b17ace3","amp;dn":"The+Shaukeen+%282014%29+%5B1CD%5D+DVDCSR+Rip+Xvid+Mp3+Studio+Audio+Team+","amp;tr":["udp%3A%2F%2Ftracker.openbittorrent.com%3A80","udp%3A%2F%2Fopen.demonii.com%3A1337","udp%3A%2F%2Ftracker.coppersurfer.tk%3A6969","udp%3A%2F%2Fexodus.desync.com%3A6969"],"infoHash":"c5556b7d4d99bfd74936b6d178440ca22b17ace3","infoHashBuffer":{"type":"Buffer","data":[197,85,107,125,77,153,191,215,73,54,182,209,120,68,12,162,43,23,172,227]},"announce":[],"urlList":[]}}